<?xml version="1.0" standalone="no"?>
<!DOCTYPE svg PUBLIC "-//W3C//DTD SVG 20010904//EN"
 "http://www.w3.org/TR/2001/REC-SVG-20010904/DTD/svg10.dtd">
<svg version="1.0" xmlns="http://www.w3.org/2000/svg"
 width="500.000000pt" height="500.000000pt" viewBox="0 0 500.000000 500.000000"
 preserveAspectRatio="xMidYMid meet">

<g transform="translate(0.000000,500.000000) scale(0.100000,-0.100000)"
fill="#000000" stroke="none">
<path d="M2288 3620 c-81 -14 -239 -71 -318 -113 -141 -76 -296 -209 -381
-327 -128 -177 -209 -414 -209 -612 0 -64 1 -68 23 -68 22 0 23 6 35 113 28
263 129 476 311 657 144 142 303 232 501 281 136 33 335 34 475 0 172 -41 347
-132 472 -245 66 -60 175 -194 168 -207 -4 -5 -53 -9 -111 -9 -104 0 -105 0
-102 -22 3 -22 7 -23 142 -28 86 -3 144 -1 153 5 11 8 13 40 11 149 -3 120 -5
140 -21 150 -27 17 -37 -8 -37 -91 0 -40 -3 -73 -7 -73 -5 0 -19 16 -32 35
-33 49 -167 175 -237 222 -87 59 -206 116 -319 153 -96 31 -108 33 -285 36
-102 1 -206 -1 -232 -6z"/>
<path d="M2249 3329 c-15 -29 -6 -308 12 -362 7 -21 27 -55 46 -76 18 -22 33
-42 33 -45 0 -3 -48 -6 -107 -6 -154 -1 -199 -20 -250 -107 -47 -80 -26 -201
44 -260 l27 -22 -31 -28 c-98 -91 -86 -246 25 -327 l44 -31 178 -3 c232 -5
224 3 228 -187 4 -141 12 -163 48 -128 24 24 17 265 -10 305 -38 58 -56 63
-248 68 -158 4 -179 7 -204 26 -48 36 -66 68 -67 120 -1 67 24 111 76 135 38
17 69 19 333 19 305 0 324 3 308 44 -5 14 -38 16 -300 16 -324 0 -339 2 -387
59 -22 27 -27 42 -27 88 0 63 17 99 64 131 31 21 40 22 327 22 236 0 299 3
314 14 16 11 17 17 7 29 -10 12 -42 16 -141 19 -122 3 -130 4 -177 33 -30 19
-60 49 -79 79 -30 49 -30 51 -35 220 -4 150 -7 171 -22 174 -9 2 -22 -7 -29
-19z"/>
<path d="M2432 3338 c-8 -8 -12 -50 -12 -132 0 -209 37 -246 243 -246 138 0
178 -14 208 -72 39 -76 14 -168 -56 -203 -37 -18 -63 -20 -332 -23 -240 -2
-293 -5 -303 -17 -10 -12 -10 -18 0 -30 10 -12 65 -15 320 -17 l308 -3 27 -25
c43 -40 58 -77 53 -132 -6 -57 -30 -93 -78 -119 -32 -17 -62 -19 -326 -19
-247 0 -293 -2 -304 -15 -10 -12 -10 -18 0 -30 10 -12 42 -15 164 -15 147 0
154 -1 206 -27 108 -55 130 -114 130 -344 0 -134 7 -153 45 -125 16 11 17 30
13 177 -4 176 -11 202 -75 287 l-24 32 59 0 c153 0 252 82 252 210 0 61 -17
103 -59 148 -17 18 -31 36 -31 39 0 3 11 14 25 25 41 32 65 90 65 156 0 73
-37 138 -103 176 -41 24 -52 26 -175 26 -124 0 -132 1 -159 24 -28 24 -28 26
-33 163 -4 113 -8 138 -20 141 -9 1 -21 -3 -28 -10z"/>
<path d="M3546 2528 c-3 -13 -7 -63 -10 -113 -8 -159 -91 -372 -201 -520 -313
-418 -877 -545 -1340 -301 -44 23 -108 63 -141 89 -67 51 -196 183 -226 232
l-18 30 108 5 c106 5 107 5 107 30 l0 25 -150 0 -150 0 -3 -130 c-3 -156 0
-177 31 -173 20 3 22 9 25 81 2 42 6 77 10 76 4 0 37 -36 74 -79 132 -153 350
-284 563 -337 97 -24 129 -28 270 -28 144 0 171 3 263 28 241 65 433 186 589
373 150 179 253 447 253 659 0 73 -1 75 -25 75 -18 0 -26 -6 -29 -22z"/>
</g>
</svg>
