<?xml version="1.0" standalone="no"?>
<!DOCTYPE svg PUBLIC "-//W3C//DTD SVG 20010904//EN"
 "http://www.w3.org/TR/2001/REC-SVG-20010904/DTD/svg10.dtd">
<svg version="1.0" xmlns="http://www.w3.org/2000/svg"
 width="500.000000pt" height="500.000000pt" viewBox="0 0 500.000000 500.000000"
 preserveAspectRatio="xMidYMid meet">

<g transform="translate(0.000000,500.000000) scale(0.100000,-0.100000)"
fill="#000000" stroke="none">
<path d="M2284 4086 c-89 -17 -140 -33 -182 -57 -18 -11 -30 -14 -26 -8 9 16
-151 -67 -204 -105 -94 -67 -164 -129 -219 -195 -87 -105 -123 -152 -123 -162
0 -5 -12 -28 -26 -50 -65 -103 -123 -326 -124 -471 0 -65 1 -68 24 -68 22 0
24 4 30 88 20 255 132 500 310 678 156 155 302 233 556 295 34 9 109 14 195
13 120 0 155 -4 245 -28 151 -40 332 -129 412 -203 16 -15 31 -22 39 -18 7 5
10 4 6 -2 -8 -13 77 -96 88 -86 4 5 5 2 1 -5 -5 -9 1 -24 16 -40 34 -37 58
-74 58 -89 0 -9 -29 -13 -102 -15 -98 -3 -103 -4 -106 -25 -3 -17 2 -23 15
-23 10 0 74 -2 143 -4 76 -2 130 0 138 6 19 16 17 281 -3 298 -30 25 -45 -5
-45 -86 0 -41 -3 -74 -6 -74 -3 0 -17 15 -32 33 -93 113 -233 234 -255 220 -5
-3 -7 -1 -3 5 7 12 -126 88 -214 122 -119 45 -209 61 -375 65 -109 3 -183 0
-231 -9z"/>
<path d="M2256 3811 c-3 -4 -6 -81 -7 -169 -1 -180 6 -214 58 -282 l34 -45
-113 -5 c-92 -4 -122 -9 -160 -28 -27 -13 -48 -30 -48 -38 0 -9 -4 -13 -8 -10
-5 3 -19 -13 -31 -35 -43 -77 -21 -198 47 -257 l27 -23 -25 -22 c-73 -64 -94
-176 -49 -256 12 -22 25 -38 29 -36 4 3 10 -3 12 -13 3 -10 26 -28 51 -40 42
-20 63 -22 206 -22 155 0 161 -1 188 -24 28 -24 28 -26 31 -158 4 -136 10
-155 43 -137 15 8 17 25 16 143 -2 149 -9 167 -77 214 -31 21 -43 22 -194 22
-191 0 -217 8 -254 80 -28 54 -25 105 10 155 41 61 64 65 387 65 244 0 290 2
301 15 10 12 10 18 0 30 -10 12 -65 15 -322 17 l-309 3 -39 41 c-54 58 -62
116 -26 177 43 75 52 77 389 77 250 0 296 2 307 15 10 12 10 18 0 30 -10 12
-38 15 -129 15 -101 0 -122 3 -166 24 -60 28 -87 56 -114 116 -18 39 -21 66
-21 197 0 140 -2 153 -19 163 -11 5 -22 6 -25 1z"/>
<path d="M2437 3808 c-14 -8 -17 -27 -17 -129 0 -215 25 -240 245 -249 119 -4
144 -8 167 -25 78 -59 76 -189 -3 -246 -34 -24 -36 -24 -336 -27 -247 -3 -304
-6 -314 -18 -9 -11 -9 -17 1 -29 11 -13 57 -15 304 -15 257 0 295 -2 326 -18
103 -51 108 -201 8 -262 -31 -19 -51 -20 -329 -20 -251 0 -298 -2 -309 -15
-10 -12 -10 -18 0 -30 10 -12 41 -15 159 -15 169 0 202 -7 258 -55 68 -58 76
-87 81 -272 5 -172 13 -201 48 -172 14 12 16 35 12 174 -5 174 -19 227 -76
287 -30 33 -27 34 75 42 39 2 84 11 100 19 35 19 76 62 97 104 34 67 11 178
-48 232 -33 31 -33 37 3 67 66 56 83 173 35 249 -54 84 -109 105 -275 105
-101 0 -118 2 -137 20 -28 26 -35 72 -29 177 6 118 -4 145 -46 121z"/>
<path d="M3552 3008 c-7 -7 -12 -38 -12 -72 0 -125 -50 -315 -111 -424 -16
-29 -27 -58 -23 -64 4 -7 3 -8 -4 -4 -7 4 -12 3 -12 -3 0 -5 -6 -16 -13 -23
-7 -7 -22 -28 -33 -47 -12 -18 -61 -73 -108 -121 -149 -150 -354 -259 -556
-296 -104 -19 -304 -18 -393 2 -103 23 -225 67 -304 110 -62 34 -181 122 -225
166 -11 11 -23 16 -29 13 -5 -4 -8 -3 -7 2 2 4 -23 42 -55 84 -31 42 -57 79
-57 82 0 4 44 7 99 7 75 0 101 4 111 15 10 12 10 18 0 30 -17 21 -272 22 -289
1 -8 -9 -11 -59 -9 -152 3 -127 5 -139 22 -142 27 -6 36 15 36 91 0 37 3 67 8
66 4 0 37 -36 74 -78 313 -365 866 -474 1313 -261 75 36 186 110 180 120 -3 4
1 7 9 6 13 -1 126 101 179 162 15 18 25 38 21 44 -4 6 -3 8 4 4 19 -11 100
121 155 254 64 154 100 430 57 438 -9 1 -21 -3 -28 -10z"/>
<path d="M2195 1445 c-99 -49 -100 -202 -2 -248 43 -21 96 -22 142 -3 34 15
35 17 35 70 0 49 -2 56 -20 56 -17 0 -20 -7 -20 -40 0 -33 -4 -42 -24 -51 -63
-29 -139 21 -139 91 0 76 77 121 148 87 29 -14 35 -14 46 -1 14 17 14 16 -28
38 -40 20 -98 20 -138 1z"/>
<path d="M2430 1378 c0 -46 5 -100 11 -121 26 -96 186 -105 225 -12 9 21 14
69 14 125 0 89 0 90 -25 90 -25 0 -25 0 -25 -95 0 -88 -2 -98 -25 -120 -13
-14 -36 -25 -50 -25 -14 0 -37 11 -50 25 -23 22 -25 32 -25 120 0 95 0 95 -25
95 -25 0 -25 -1 -25 -82z"/>
<path d="M2710 1440 c0 -17 7 -20 45 -20 l45 0 0 -120 0 -120 25 0 25 0 0 120
0 120 45 0 c38 0 45 3 45 20 0 19 -7 20 -115 20 -108 0 -115 -1 -115 -20z"/>
<path d="M1365 891 c-49 -30 -68 -58 -72 -108 -10 -118 115 -194 216 -132 30
18 32 22 19 35 -13 13 -18 13 -44 -1 -37 -19 -57 -19 -94 0 -36 19 -50 43 -50
88 0 73 74 116 141 83 29 -14 35 -15 47 -2 13 13 11 17 -19 35 -42 26 -104 27
-144 2z"/>
<path d="M1677 902 c-8 -11 -117 -263 -117 -268 0 -2 11 -4 24 -4 18 0 27 8
35 30 10 30 11 30 83 30 73 0 74 0 85 -30 8 -23 18 -30 37 -30 l25 0 -33 78
c-89 205 -87 202 -112 202 -12 0 -25 -3 -27 -8z m68 -160 c-5 -5 -95 -11 -95
-6 0 2 12 29 26 61 l26 58 24 -54 c13 -30 22 -56 19 -59z"/>
<path d="M1890 771 c0 -134 1 -141 20 -141 17 0 20 7 20 40 l0 40 44 0 c42 0
46 -3 67 -40 16 -29 29 -40 46 -40 29 0 29 2 -3 49 l-25 39 25 25 c37 37 37
104 0 138 -22 21 -37 24 -110 28 l-84 3 0 -141z m167 73 c35 -48 4 -84 -73
-84 l-54 0 0 48 c0 27 3 52 8 56 14 15 105 0 119 -20z"/>
<path d="M2170 770 l0 -140 105 0 c98 0 105 1 105 20 0 18 -7 20 -80 20 l-80
0 0 40 0 40 70 0 c63 0 70 2 70 20 0 18 -7 20 -70 20 l-70 0 0 40 0 40 75 0
c68 0 75 2 75 20 0 19 -7 20 -100 20 l-100 0 0 -140z"/>
<path d="M2400 890 c0 -17 7 -20 45 -20 l45 0 0 -120 0 -120 25 0 25 0 0 120
0 120 45 0 c38 0 45 3 45 20 0 19 -7 20 -115 20 -108 0 -115 -1 -115 -20z"/>
<path d="M2697 777 c-31 -72 -57 -135 -57 -139 0 -21 41 -5 55 22 15 29 18 30
85 30 67 0 70 -1 85 -30 14 -27 55 -43 55 -22 0 4 -26 67 -57 140 -52 120 -60
132 -83 132 -23 0 -31 -13 -83 -133z m105 30 c32 -79 34 -73 -22 -73 -27 1
-50 3 -50 6 0 11 44 110 49 110 3 0 14 -19 23 -43z"/>
<path d="M2961 770 l-2 -140 26 0 c22 0 25 4 25 34 0 32 41 99 53 86 2 -3 23
-31 46 -62 31 -44 48 -58 66 -58 14 0 25 2 25 5 0 3 -22 36 -50 75 -27 39 -50
75 -50 81 0 5 23 35 51 65 l52 54 -29 0 c-23 0 -42 -14 -96 -72 l-67 -73 -1
73 c0 69 -1 72 -24 72 l-24 0 -1 -140z"/>
<path d="M3250 770 l0 -140 105 0 c98 0 105 1 105 20 0 18 -7 20 -80 20 l-80
0 0 40 0 40 70 0 c63 0 70 2 70 20 0 18 -7 20 -70 20 l-70 0 0 40 0 40 75 0
c68 0 75 2 75 20 0 19 -7 20 -100 20 l-100 0 0 -140z"/>
<path d="M3510 770 l0 -140 25 0 c23 0 25 4 25 40 l0 40 43 0 c39 0 44 -3 65
-40 17 -30 29 -40 47 -40 31 0 31 5 0 46 -28 37 -31 50 -11 61 19 12 36 48 36
78 0 67 -46 95 -155 95 l-75 0 0 -140z m172 82 c14 -14 13 -58 -2 -77 -8 -10
-31 -15 -66 -15 l-54 0 0 56 0 56 55 -4 c31 -3 61 -10 67 -16z"/>
</g>
</svg>
